<svg width="305" height="43" viewBox="0 0 305 43" fill="none" xmlns="http://www.w3.org/2000/svg">
<path d="M15.16 32L9 21.12H6.36V32H0.76V4.08H11.24C13.4 4.08 15.24 4.46667 16.76 5.24C18.28 5.98667 19.4133 7.01333 20.16 8.32C20.9333 9.6 21.32 11.04 21.32 12.64C21.32 14.48 20.7867 16.1467 19.72 17.64C18.6533 19.1067 17.0667 20.12 14.96 20.68L21.64 32H15.16ZM6.36 16.92H11.04C12.56 16.92 13.6933 16.56 14.44 15.84C15.1867 15.0933 15.56 14.0667 15.56 12.76C15.56 11.48 15.1867 10.4933 14.44 9.8C13.6933 9.08 12.56 8.72 11.04 8.72H6.36V16.92ZM24.945 20.84C24.945 18.6 25.385 16.6133 26.265 14.88C27.1717 13.1467 28.385 11.8133 29.905 10.88C31.4517 9.94667 33.1717 9.48 35.065 9.48C36.7183 9.48 38.1583 9.81333 39.385 10.48C40.6383 11.1467 41.6383 11.9867 42.385 13V9.84H48.025V32H42.385V28.76C41.665 29.8 40.665 30.6667 39.385 31.36C38.1317 32.0267 36.6783 32.36 35.025 32.36C33.1583 32.36 31.4517 31.88 29.905 30.92C28.385 29.96 27.1717 28.6133 26.265 26.88C25.385 25.12 24.945 23.1067 24.945 20.84ZM42.385 20.92C42.385 19.56 42.1183 18.4 41.585 17.44C41.0517 16.4533 40.3317 15.7067 39.425 15.2C38.5183 14.6667 37.545 14.4 36.505 14.4C35.465 14.4 34.505 14.6533 33.625 15.16C32.745 15.6667 32.025 16.4133 31.465 17.4C30.9317 18.36 30.665 19.5067 30.665 20.84C30.665 22.1733 30.9317 23.3467 31.465 24.36C32.025 25.3467 32.745 26.1067 33.625 26.64C34.5317 27.1733 35.4917 27.44 36.505 27.44C37.545 27.44 38.5183 27.1867 39.425 26.68C40.3317 26.1467 41.0517 25.4 41.585 24.44C42.1183 23.4533 42.385 22.28 42.385 20.92ZM59.0944 13.04C59.8144 12.0267 60.801 11.1867 62.0544 10.52C63.3344 9.82667 64.7877 9.48 66.4144 9.48C68.3077 9.48 70.0144 9.94667 71.5344 10.88C73.081 11.8133 74.2944 13.1467 75.1744 14.88C76.081 16.5867 76.5344 18.5733 76.5344 20.84C76.5344 23.1067 76.081 25.12 75.1744 26.88C74.2944 28.6133 73.081 29.96 71.5344 30.92C70.0144 31.88 68.3077 32.36 66.4144 32.36C64.7877 32.36 63.3477 32.0267 62.0944 31.36C60.8677 30.6933 59.8677 29.8533 59.0944 28.84V42.56H53.4944V9.84H59.0944V13.04ZM70.8144 20.84C70.8144 19.5067 70.5344 18.36 69.9744 17.4C69.441 16.4133 68.721 15.6667 67.8144 15.16C66.9344 14.6533 65.9744 14.4 64.9344 14.4C63.921 14.4 62.961 14.6667 62.0544 15.2C61.1744 15.7067 60.4544 16.4533 59.8944 17.44C59.361 18.4267 59.0944 19.5867 59.0944 20.92C59.0944 22.2533 59.361 23.4133 59.8944 24.4C60.4544 25.3867 61.1744 26.1467 62.0544 26.68C62.961 27.1867 63.921 27.44 64.9344 27.44C65.9744 27.44 66.9344 27.1733 67.8144 26.64C68.721 26.1067 69.441 25.3467 69.9744 24.36C70.5344 23.3733 70.8144 22.2 70.8144 20.84ZM93.0838 9.52C94.7638 9.52 96.2571 9.89333 97.5638 10.64C98.8704 11.36 99.8838 12.44 100.604 13.88C101.35 15.2933 101.724 17 101.724 19V32H96.1238V19.76C96.1238 18 95.6838 16.6533 94.8038 15.72C93.9238 14.76 92.7238 14.28 91.2038 14.28C89.6571 14.28 88.4304 14.76 87.5238 15.72C86.6438 16.6533 86.2038 18 86.2038 19.76V32H80.6038V2.4H86.2038V12.6C86.9238 11.64 87.8838 10.8933 89.0838 10.36C90.2838 9.8 91.6171 9.52 93.0838 9.52ZM105.609 20.84C105.609 18.6 106.049 16.6133 106.929 14.88C107.836 13.1467 109.049 11.8133 110.569 10.88C112.116 9.94667 113.836 9.48 115.729 9.48C117.382 9.48 118.822 9.81333 120.049 10.48C121.302 11.1467 122.302 11.9867 123.049 13V9.84H128.689V32H123.049V28.76C122.329 29.8 121.329 30.6667 120.049 31.36C118.796 32.0267 117.342 32.36 115.689 32.36C113.822 32.36 112.116 31.88 110.569 30.92C109.049 29.96 107.836 28.6133 106.929 26.88C106.049 25.12 105.609 23.1067 105.609 20.84ZM123.049 20.92C123.049 19.56 122.782 18.4 122.249 17.44C121.716 16.4533 120.996 15.7067 120.089 15.2C119.182 14.6667 118.209 14.4 117.169 14.4C116.129 14.4 115.169 14.6533 114.289 15.16C113.409 15.6667 112.689 16.4133 112.129 17.4C111.596 18.36 111.329 19.5067 111.329 20.84C111.329 22.1733 111.596 23.3467 112.129 24.36C112.689 25.3467 113.409 26.1067 114.289 26.64C115.196 27.1733 116.156 27.44 117.169 27.44C118.209 27.44 119.182 27.1867 120.089 26.68C120.996 26.1467 121.716 25.4 122.249 24.44C122.782 23.4533 123.049 22.28 123.049 20.92ZM154.758 20.44C154.758 21.24 154.705 21.96 154.598 22.6H138.398C138.532 24.2 139.092 25.4533 140.078 26.36C141.065 27.2667 142.278 27.72 143.718 27.72C145.798 27.72 147.278 26.8267 148.158 25.04H154.198C153.558 27.1733 152.332 28.9333 150.518 30.32C148.705 31.68 146.478 32.36 143.838 32.36C141.705 32.36 139.785 31.8933 138.078 30.96C136.398 30 135.078 28.6533 134.118 26.92C133.185 25.1867 132.718 23.1867 132.718 20.92C132.718 18.6267 133.185 16.6133 134.118 14.88C135.052 13.1467 136.358 11.8133 138.038 10.88C139.718 9.94667 141.652 9.48 143.838 9.48C145.945 9.48 147.825 9.93333 149.478 10.84C151.158 11.7467 152.452 13.04 153.358 14.72C154.292 16.3733 154.758 18.28 154.758 20.44ZM148.958 18.84C148.932 17.4 148.412 16.2533 147.398 15.4C146.385 14.52 145.145 14.08 143.678 14.08C142.292 14.08 141.118 14.5067 140.158 15.36C139.225 16.1867 138.652 17.3467 138.438 18.84H148.958ZM164.446 2.4V32H158.846V2.4H164.446ZM184.379 32L178.219 21.12H175.579V32H169.979V4.08H180.459C182.619 4.08 184.459 4.46667 185.979 5.24C187.499 5.98667 188.632 7.01333 189.379 8.32C190.152 9.6 190.539 11.04 190.539 12.64C190.539 14.48 190.005 16.1467 188.939 17.64C187.872 19.1067 186.285 20.12 184.179 20.68L190.859 32H184.379ZM175.579 16.92H180.259C181.779 16.92 182.912 16.56 183.659 15.84C184.405 15.0933 184.779 14.0667 184.779 12.76C184.779 11.48 184.405 10.4933 183.659 9.8C182.912 9.08 181.779 8.72 180.259 8.72H175.579V16.92ZM205.444 32.36C203.31 32.36 201.39 31.8933 199.684 30.96C197.977 30 196.63 28.6533 195.644 26.92C194.684 25.1867 194.204 23.1867 194.204 20.92C194.204 18.6533 194.697 16.6533 195.684 14.92C196.697 13.1867 198.07 11.8533 199.804 10.92C201.537 9.96 203.47 9.48 205.604 9.48C207.737 9.48 209.67 9.96 211.404 10.92C213.137 11.8533 214.497 13.1867 215.484 14.92C216.497 16.6533 217.004 18.6533 217.004 20.92C217.004 23.1867 216.484 25.1867 215.444 26.92C214.43 28.6533 213.044 30 211.284 30.96C209.55 31.8933 207.604 32.36 205.444 32.36ZM205.444 27.48C206.457 27.48 207.404 27.24 208.284 26.76C209.19 26.2533 209.91 25.5067 210.444 24.52C210.977 23.5333 211.244 22.3333 211.244 20.92C211.244 18.8133 210.684 17.2 209.564 16.08C208.47 14.9333 207.124 14.36 205.524 14.36C203.924 14.36 202.577 14.9333 201.484 16.08C200.417 17.2 199.884 18.8133 199.884 20.92C199.884 23.0267 200.404 24.6533 201.444 25.8C202.51 26.92 203.844 27.48 205.444 27.48ZM242.032 9.84V32H236.392V29.2C235.672 30.16 234.725 30.92 233.552 31.48C232.405 32.0133 231.152 32.28 229.792 32.28C228.058 32.28 226.525 31.92 225.192 31.2C223.858 30.4533 222.805 29.3733 222.032 27.96C221.285 26.52 220.912 24.8133 220.912 22.84V9.84H226.512V22.04C226.512 23.8 226.952 25.16 227.832 26.12C228.712 27.0533 229.912 27.52 231.432 27.52C232.978 27.52 234.192 27.0533 235.072 26.12C235.952 25.16 236.392 23.8 236.392 22.04V9.84H242.032ZM257.717 14.44H253.837V32H248.157V14.44H245.637V9.84H248.157V8.72C248.157 6 248.93 4 250.477 2.72C252.024 1.44 254.357 0.839999 257.477 0.92V5.64C256.117 5.61333 255.17 5.84 254.637 6.32C254.104 6.8 253.837 7.66667 253.837 8.92V9.84H257.717V14.44ZM263.826 32.28C262.813 32.28 261.973 31.9733 261.306 31.36C260.666 30.72 260.346 29.9333 260.346 29C260.346 28.0667 260.666 27.2933 261.306 26.68C261.973 26.04 262.813 25.72 263.826 25.72C264.813 25.72 265.626 26.04 266.266 26.68C266.906 27.2933 267.226 28.0667 267.226 29C267.226 29.9333 266.906 30.72 266.266 31.36C265.626 31.9733 264.813 32.28 263.826 32.28ZM274.577 7.2C273.59 7.2 272.763 6.89333 272.097 6.28C271.457 5.64 271.137 4.85333 271.137 3.92C271.137 2.98667 271.457 2.21333 272.097 1.6C272.763 0.959998 273.59 0.639998 274.577 0.639998C275.563 0.639998 276.377 0.959998 277.017 1.6C277.683 2.21333 278.017 2.98667 278.017 3.92C278.017 4.85333 277.683 5.64 277.017 6.28C276.377 6.89333 275.563 7.2 274.577 7.2ZM277.337 9.84V32H271.737V9.84H277.337ZM292.709 32.36C290.576 32.36 288.656 31.8933 286.949 30.96C285.243 30 283.896 28.6533 282.909 26.92C281.949 25.1867 281.469 23.1867 281.469 20.92C281.469 18.6533 281.963 16.6533 282.949 14.92C283.963 13.1867 285.336 11.8533 287.069 10.92C288.803 9.96 290.736 9.48 292.869 9.48C295.003 9.48 296.936 9.96 298.669 10.92C300.403 11.8533 301.763 13.1867 302.749 14.92C303.763 16.6533 304.269 18.6533 304.269 20.92C304.269 23.1867 303.749 25.1867 302.709 26.92C301.696 28.6533 300.309 30 298.549 30.96C296.816 31.8933 294.869 32.36 292.709 32.36ZM292.709 27.48C293.723 27.48 294.669 27.24 295.549 26.76C296.456 26.2533 297.176 25.5067 297.709 24.52C298.243 23.5333 298.509 22.3333 298.509 20.92C298.509 18.8133 297.949 17.2 296.829 16.08C295.736 14.9333 294.389 14.36 292.789 14.36C291.189 14.36 289.843 14.9333 288.749 16.08C287.683 17.2 287.149 18.8133 287.149 20.92C287.149 23.0267 287.669 24.6533 288.709 25.8C289.776 26.92 291.109 27.48 292.709 27.48Z" fill="black"/>
</svg>
