<svg width="118" height="103" viewBox="0 0 118 103" fill="none" xmlns="http://www.w3.org/2000/svg">
<rect width="12.5546" height="3.44389" transform="matrix(-0.598695 -0.800977 0.703237 -0.710956 19.9009 101.242)" fill="#DCBCFA" fill-opacity="0.45"/>
<rect width="8.38997" height="5.52778" transform="matrix(-0.830211 0.55745 -0.444656 -0.895701 117.195 5.95544)" fill="#480CA7"/>
<rect width="13.2989" height="4.68845" transform="matrix(0.960438 0.278495 -0.209621 0.977783 63.4274 43.673)" fill="#9AF5FC" fill-opacity="0.6"/>
<rect width="19.1683" height="3.59287" transform="matrix(-0.808949 0.587879 -0.473302 -0.8809 63.4274 86.3535)" fill="#4BC8EF" fill-opacity="0.6"/>
<rect width="18.5592" height="2.60064" transform="matrix(0.740109 0.672487 -0.55764 0.830083 42.9445 41.6879)" fill="#FF21FB" fill-opacity="0.6"/>
<rect width="22.2011" height="4.93268" transform="matrix(-0.119971 0.992777 -0.986904 -0.161308 90.7382 9.92566)" fill="#03A3F5" fill-opacity="0.65"/>
<ellipse cx="50.2672" cy="4.54596" rx="3.90884" ry="4.54596" fill="#480CA7" fill-opacity="0.65"/>
<ellipse cx="68.1898" cy="90.8995" rx="3.05538" ry="3.5534" fill="#FFED36"/>
<ellipse cx="22.9564" cy="52.1892" rx="2.20192" ry="2.56083" fill="#FFED36" fill-opacity="0.9"/>
<path d="M5.25656 79.2988L0.32072 74.9731L2.33284 68.177L8.51223 68.3025L10.3192 75.1761L5.25656 79.2988Z" fill="#480CA7" fill-opacity="0.35"/>
<path d="M13.9826 53.6141L18.6746 56.1586L18.0437 62.1346L12.9618 63.2834L10.4519 58.0174L13.9826 53.6141Z" fill="#FC9E1C" fill-opacity="0.85"/>
<path d="M97.8365 94.7439L100.948 95.0605L102.268 98.3529L100.477 101.329L97.3649 101.012L96.0448 97.7197L97.8365 94.7439Z" fill="#FC9E1C" fill-opacity="0.75"/>
<path d="M77.0741 46.4053L78.1727 42.6295L76.4231 39.2018L79.6698 40.4794L82.617 38.4447L81.5185 42.2205L83.268 45.6481L80.0214 44.3706L77.0741 46.4053Z" fill="#FC9E1C" fill-opacity="0.35"/>
<path d="M87.671 40.3192L89.9122 38.4305L88.3616 35.7641L90.8887 37.0771L92.0989 34.1822L92.3847 37.3839L95.1455 37.1553L92.9043 39.044L94.4549 41.7104L91.9278 40.3974L90.7176 43.2924L90.4318 40.0907L87.671 40.3192Z" fill="#BA3E03" fill-opacity="0.6"/>
</svg>
